<?xml version="1.0"?><svg xmlns="http://www.w3.org/2000/svg" xmlns:xlink="http://www.w3.org/1999/xlink" version="1.1" viewBox="0 0 510.007 509.75" style="enable-background:new 0 0 510.007 509.75;" xml:space="preserve"><g id="_x30_1_x2C__running_x2C__walking_x2C__jogging_x2C__run_x2C__exercise_x2C__shoes"><g><g><g id="XMLID_1_"><g id="XMLID_15_"><path id="XMLID_16_" style="fill:#5596FB;" d="M500.007,436.515H334.712c-1.841,0-3.672-0.456-5.297-1.319l-16.207-8.607       l84.83-84.791c3.906-3.904,3.908-10.235,0.004-14.142c-3.905-3.907-10.236-3.907-14.142-0.004l-89.166,89.125l-41.336-21.953       l105.842-105.71c3.907-3.902,3.912-10.234,0.009-14.142c-3.903-3.908-10.234-3.913-14.142-0.009L234.921,385.011       l-41.332-21.951l125.49-125.332c3.908-3.902,3.912-10.234,0.009-14.142c-3.903-3.908-10.234-3.912-14.142-0.009       l-129.833,129.67L43.387,283.289c-4.877-2.591-10.932-0.735-13.522,4.142c-2.591,4.878-0.736,10.932,4.141,13.522       c11.879,6.309,269.951,143.368,286.027,151.906c4.503,2.392,9.579,3.656,14.679,3.656h165.295c5.522,0,10-4.478,10-10       C510.007,440.993,505.529,436.515,500.007,436.515z"/></g><g id="XMLID_2_"><path id="XMLID_5_" style="fill:#283954;" d="M451.489,366.137c-52.285-17.019-63.501-59.905-126.844-135.995       c2.321-3.265,138.435-194.723,152.386-214.347c2.168-3.05,2.452-7.055,0.736-10.38C476.051,2.089,472.622,0,468.88,0H287.886       c-3.005,0-5.852,1.352-7.751,3.681L143.199,171.637l-9.007-9.007c-2.072-2.072-4.952-3.125-7.87-2.897       c-2.921,0.234-5.592,1.737-7.308,4.113C-4.34,334.703,2.879,324.428,2.188,325.809c-5.182,10.369-0.833,22.914,9.593,27.876       l145.828,72.184H63.24c-5.523,0-10,4.478-10,10c0,5.522,4.477,10,10,10h134.774l45.631,22.587h-95.232c-5.523,0-10,4.478-10,10       c0,5.522,4.477,10,10,10H284.05l36.459,18.047c4.294,2.124,9.093,3.247,13.881,3.247h112.383       c34.867,0,63.234-28.367,63.234-63.268C509.884,409.778,486.367,377.49,451.489,366.137z M292.636,20h156.866l-93.359,131.32       L232.855,93.322L292.636,20z M219.83,109.298l124.537,58.585l-37.604,52.894l-111.721,2.703l-37.628-37.628L219.83,109.298z        M446.773,489.75H334.39c-1.728,0-3.461-0.405-5.01-1.172c-127.281-63.003-308.893-152.9-308.998-152.949       c-0.235-0.108-0.361-0.329-0.374-0.556l108.344-149.999c9.623,9.623,36.139,36.14,55.578,55.579       c1.935,1.934,4.571,2.985,7.313,2.926l116.221-2.813c65.248,77.732,77.175,124.644,137.834,144.389       c26.648,8.674,44.614,33.346,44.709,61.36C490.007,470.355,470.612,489.75,446.773,489.75z"/><path id="XMLID_4_" style="fill:#283954;" d="M20.653,425.869H10.007c-5.523,0-10,4.478-10,10c0,5.522,4.477,10,10,10h10.646       c5.523,0,10-4.478,10-10C30.653,430.346,26.176,425.869,20.653,425.869z"/><path id="XMLID_3_" style="fill:#283954;" d="M105.827,468.456H95.181c-5.523,0-10,4.478-10,10c0,5.522,4.477,10,10,10h10.646       c5.523,0,10-4.478,10-10C115.827,472.933,111.35,468.456,105.827,468.456z"/></g></g></g></g></g><g id="Layer_1"/></svg>